<svg width="1257" height="137" viewBox="0 0 1257 137" fill="none" xmlns="http://www.w3.org/2000/svg">
<path d="M119.247 96.643C107.74 121.826 87.0601 134 60.2098 134C22.1858 134 0.338623 105.148 0.338623 66.624C0.338623 28.2664 22.1858 0.582275 60.2098 0.582275C87.2269 0.582275 107.907 12.4231 120.915 43.2759L96.0658 58.619C88.0608 33.1028 76.7202 29.1003 60.2098 29.1003C45.2003 29.1003 28.6899 36.2715 28.6899 66.624C28.6899 98.4775 45.2003 105.148 60.2098 105.482C76.7202 105.815 86.8933 101.313 93.731 81.1332L119.247 96.643Z" fill="white"/>
<path d="M188.998 136.502C160.313 136.502 137.632 112.486 137.632 82.6341C137.632 53.449 160.313 29.2671 188.998 29.2671C217.516 29.2671 240.031 53.449 240.031 82.6341C240.031 112.486 217.516 136.502 188.998 136.502ZM188.831 109.151C204.175 109.151 212.513 97.1433 212.513 82.8009C212.513 68.6253 204.175 56.6177 188.831 56.6177C173.822 56.6177 165.15 68.6253 165.15 82.8009C165.15 97.1433 173.822 109.151 188.831 109.151Z" fill="white"/>
<path d="M256.686 134V32.1022H285.037L280.034 67.7914H284.537C291.708 33.6031 313.722 29.6006 327.397 29.6006C347.243 29.6006 361.585 38.7731 360.251 67.7914H364.754C371.925 33.6031 393.939 29.6006 407.614 29.6006C430.629 29.6006 445.472 41.4414 445.472 93.9746V134H418.121V93.9746C418.121 69.7927 412.117 57.9519 394.273 57.9519C374.427 57.9519 365.254 71.9607 365.254 93.9746V134H337.904V93.9746C337.904 69.7927 331.9 57.9519 314.055 57.9519C294.209 57.9519 285.037 71.9607 285.037 93.9746V134H256.686Z" fill="white"/>
<path d="M462.219 134V32.1022H490.57L485.567 67.7914H490.07C497.241 33.6031 519.255 29.6006 532.931 29.6006C552.776 29.6006 567.119 38.7731 565.785 67.7914H570.287C577.459 33.6031 599.473 29.6006 613.148 29.6006C636.162 29.6006 651.005 41.4414 651.005 93.9746V134H623.655V93.9746C623.655 69.7927 617.651 57.9519 599.806 57.9519C579.96 57.9519 570.788 71.9607 570.788 93.9746V134H543.437V93.9746C543.437 69.7927 537.433 57.9519 519.589 57.9519C499.743 57.9519 490.57 71.9607 490.57 93.9746V134H462.219Z" fill="white"/>
<path d="M719.119 136.502C690.434 136.502 667.753 112.486 667.753 82.6341C667.753 53.449 690.434 29.2671 719.119 29.2671C747.637 29.2671 770.151 53.449 770.151 82.6341C770.151 112.486 747.637 136.502 719.119 136.502ZM718.952 109.151C734.295 109.151 742.633 97.1433 742.633 82.8009C742.633 68.6253 734.295 56.6177 718.952 56.6177C703.942 56.6177 695.27 68.6253 695.27 82.8009C695.27 97.1433 703.942 109.151 718.952 109.151Z" fill="white"/>
<path d="M854.182 29.6006C883.867 29.6006 898.71 46.4446 898.71 93.9746V134H871.359V93.9746C871.359 69.7927 865.356 57.9519 844.175 57.9519C824.33 57.9519 815.157 71.9607 815.157 93.9746V134H786.806V32.269H815.157L810.154 67.7914H813.489C817.659 31.4351 832.335 29.6006 854.182 29.6006Z" fill="white"/>
<path d="M994.685 23.9304C972.004 23.7636 964.832 23.7636 962.664 32.269H994.685V60.6202H961.497V134H933.98V60.6202H915.468V32.269H934.313C935.814 9.92151 944.82 0.582275 994.685 0.582275V23.9304Z" fill="white"/>
<path d="M1094.95 32.269H1123.3V134H1094.95L1099.95 98.4775H1096.61C1092.45 134.834 1077.77 136.668 1055.92 136.668C1026.24 136.668 1011.39 119.824 1011.39 72.2943V32.269H1038.75V72.2943C1038.75 96.4762 1044.75 108.317 1065.93 108.317C1085.77 108.317 1094.95 94.3082 1094.95 72.2943V32.269Z" fill="white"/>
<path d="M1212.48 29.6006C1242.17 29.6006 1257.01 46.4446 1257.01 93.9746V134H1229.66V93.9746C1229.66 69.7927 1223.65 57.9519 1202.47 57.9519C1182.63 57.9519 1173.46 71.9607 1173.46 93.9746V134H1145.11V32.269H1173.46L1168.45 67.7914H1171.79C1175.96 31.4351 1190.63 29.6006 1212.48 29.6006Z" fill="white"/>
</svg>
